<?xml version="1.0" encoding="UTF-8" standalone="no"?>
<svg
   xmlns:dc="http://purl.org/dc/elements/1.1/"
   xmlns:cc="http://creativecommons.org/ns#"
   xmlns:rdf="http://www.w3.org/1999/02/22-rdf-syntax-ns#"
   xmlns:svg="http://www.w3.org/2000/svg"
   xmlns="http://www.w3.org/2000/svg"
   xmlns:sodipodi="http://sodipodi.sourceforge.net/DTD/sodipodi-0.dtd"
   xmlns:inkscape="http://www.inkscape.org/namespaces/inkscape"
   version="1.1"
   id="svg2"
   xml:space="preserve"
   width="249.33333"
   height="242.66667"
   viewBox="0 0 249.33333 242.66667"
   sodipodi:docname="AppInsGruene_Logo.svg"
   inkscape:version="1.0.2 (e86c870879, 2021-01-15)"><metadata
     id="metadata8"><rdf:RDF><cc:Work
         rdf:about=""><dc:format>image/svg+xml</dc:format><dc:type
           rdf:resource="http://purl.org/dc/dcmitype/StillImage" /><dc:title></dc:title></cc:Work></rdf:RDF></metadata><defs
     id="defs6"><clipPath
       clipPathUnits="userSpaceOnUse"
       id="clipPath20"><path
         d="M 0,1429 H 1659 V 0 H 0 Z"
         id="path18" /></clipPath></defs><sodipodi:namedview
     pagecolor="#ffffff"
     bordercolor="#666666"
     borderopacity="1"
     objecttolerance="10"
     gridtolerance="10"
     guidetolerance="10"
     inkscape:pageopacity="0"
     inkscape:pageshadow="2"
     inkscape:window-width="3840"
     inkscape:window-height="2031"
     id="namedview4"
     showgrid="false"
     inkscape:zoom="4.1538461"
     inkscape:cx="124.66666"
     inkscape:cy="121.33334"
     inkscape:window-x="0"
     inkscape:window-y="34"
     inkscape:window-maximized="1"
     inkscape:current-layer="g12" /><g
     id="g10"
     inkscape:groupmode="layer"
     inkscape:label="ink_ext_XXXXXX"
     transform="matrix(1.3333333,0,0,-1.3333333,0,242.66667)"><g
       id="g12"
       transform="scale(0.1)"><g
         id="g14"><g
           id="g16"
           clip-path="url(#clipPath20)"><path
             d="m 448.441,1115.04 c 21.36,-65.7 30.938,-168.36 38.59,-254.841 4.61,-54.379 25.117,-167.148 15.778,-213.398 -7.457,-36.961 -29.18,-63.129 -79.918,-52.66 -39.879,8.238 -50.59,41.089 -57.891,81.988 -5.859,30.98 -20.121,54.922 -49.691,62.781 -13.981,3.75 -43.2,13.281 -75.618,20 -52.39,10.781 -73.089,-1.57 -89.961,-20.859 -28.089,-31.84 -44.421,-78.36 -95.1206,-67.93 C 2.23047,680.941 -6.48047,710.738 1.67969,751.09 12.6992,805.738 145.512,1021.72 182.07,1086.84 c 35.16,62.77 83.008,119.41 167.77,101.95 36.609,-7.58 84.262,-28.79 98.601,-73.75 M 330.512,835.551 c 14.648,-0.391 28.668,8.98 32.379,27.461 6.8,33.629 -7.539,117.148 -14.219,152.648 -3.082,14.65 -8.832,33.36 -24.652,36.61 -9.141,1.91 -21.95,-1.61 -26.79,-8.48 -26.25,-31.33 -78.75,-128.2 -82.152,-145.001 -7.109,-35.309 23.121,-48.559 49.723,-54.059 21.609,-4.46 47.39,-9.769 65.711,-9.179"
             style="fill:#455b24;fill-opacity:1;fill-rule:nonzero;stroke:none"
             id="path22" /><path
             d="m 666.02,926.879 c 16.949,0 30.539,46.32 111.992,46.32 114.527,0 172.258,-102.07 172.258,-204.14 0,-114.957 -65.348,-230.739 -182.461,-230.739 -39.879,0 -74.649,9.41 -105.188,30.039 -0.859,-6.879 -1.723,-13.75 -1.723,-20.629 0,-24.839 7.653,-61.75 7.653,-86.64 0,-44.57 -10.192,-80.621 -63.629,-80.621 -54.332,0 -71.293,34.332 -71.293,84.062 0,55.778 12.742,144.098 12.742,216.168 0,122.66 -17.82,175 -17.82,228.211 0,46.289 28.828,66.871 70.429,66.871 55.161,0 57.7,-48.871 67.04,-48.871 M 828.09,765.621 c 0,50.629 -33.949,92.66 -85.711,92.66 -61.09,0 -79.758,-48.011 -79.758,-104.652 0,-49.758 14.41,-99.488 72.109,-99.488 64.489,0 93.36,52.308 93.36,111.48"
             style="fill:#455b24;fill-opacity:1;fill-rule:nonzero;stroke:none"
             id="path24" /><path
             d="m 1108.36,916.602 c 21.21,36.878 66.17,55.738 106.05,55.738 128.99,0 176.49,-95.192 176.49,-208.43 0,-118.359 -60.24,-228.172 -188.36,-228.172 -32.27,0 -79.77,9.422 -102.7,36.024 0,-36.024 5.98,-71.172 5.98,-107.231 0,-41.172 -10.2,-82.34 -59.41,-82.34 -52.621,0 -72.109,32.61 -72.109,82.34 0,56.641 7.609,91.801 7.609,225.629 0,125.231 -12.73,151.828 -12.73,200.699 0,50.621 23.789,82.34 75.55,82.34 35.62,0 54.29,-23.98 63.63,-56.597 M 1277.34,766.48 c 0,53.211 -22.89,92.661 -79.76,92.661 -64.49,0 -90.78,-55.743 -90.78,-114.102 0,-60.039 39.88,-94.34 83.16,-94.34 63.63,0 87.38,59.18 87.38,115.781"
             style="fill:#455b24;fill-opacity:1;fill-rule:nonzero;stroke:none"
             id="path26" /><path
             d="m 189.219,683.871 c 0,-13.641 -7.231,-35.242 -23.438,-35.242 -17.972,0 -39.019,4.891 -39.019,27.191 0,28.981 10.039,37.34 37.297,37.34 17.582,0 25.16,-12.93 25.16,-29.289 M 130.59,614.059 c 0,19.222 9.64,23.75 25.859,23.75 15.192,0 26.602,-4.879 26.602,-21.289 0,-23.36 -1.063,-40.11 -1.063,-56.872 0,-15 5.203,-25.117 5.203,-38.359 0,-19.57 -7.621,-35.937 -29.339,-35.937 -22.461,0 -28.672,8.359 -28.672,30.347 0,21.961 2.422,44.301 2.422,66.289 0,10.121 -1.012,21.961 -1.012,32.071"
             style="fill:#455b24;fill-opacity:1;fill-rule:nonzero;stroke:none"
             id="path28" /><path
             d="m 236.879,656.988 c 17.609,0 26.91,-9.449 26.91,-27.218 8.633,16.402 27.262,24.41 45.231,24.41 41.058,0 60.75,-22.301 60.75,-65.59 0,-11.871 -1.059,-22.34 -1.059,-33.82 0,-28.95 3.789,-33.168 3.789,-49.891 0,-17.809 -10,-28.629 -27.93,-28.629 -16.558,0 -26.601,9.77 -26.601,26.871 0,18.828 2.109,36.289 2.109,55.117 0,19.532 -2.109,45 -26.598,45 -18.992,0 -31.058,-12.187 -31.058,-32.066 0,-32.813 2.418,-46.402 2.418,-67.344 0,-17.109 -10.352,-28.238 -27.961,-28.238 -14.5,0 -27.27,11.48 -27.27,26.129 0,16.051 3.481,28.941 3.481,62.113 0,33.828 -4.141,50.227 -4.141,63.156 0,18.832 8.281,30 27.93,30"
             style="fill:#455b24;fill-opacity:1;fill-rule:nonzero;stroke:none"
             id="path30" /><path
             d="m 509.879,525.078 c 0,-12.887 -12.07,-18.828 -23.43,-18.828 -13.828,0 -17.621,14.301 -45.238,14.301 -7.582,0 -14.492,-4.531 -14.492,-12.891 0,-30.711 91.801,2.07 91.801,-68.75 0,-43.601 -36.571,-60 -75.59,-60 -27.578,0 -65.2,13.59 -65.2,42.57 0,15.711 6.879,25.469 20.711,25.469 20.348,0 17.579,-25.109 51.399,-25.109 10,0 22.781,4.879 22.781,16.051 0,11.839 -19.691,15.66 -28.281,16.371 -34.539,3.859 -63.52,19.527 -63.52,52.687 0,39.071 34.18,55.473 68.321,55.473 26.25,0 60.738,-6.641 60.738,-37.344"
             style="fill:#455b24;fill-opacity:1;fill-rule:nonzero;stroke:none"
             id="path32" /><path
             d="m 348.121,382.891 c 0,-24.493 -18.16,-45.59 -43.082,-45.59 -29.609,0 -50.469,30.629 -103.629,30.629 -76.058,0 -98.949,-63.981 -98.949,-127.93 0,-68.711 21.519,-142.2305 96.25,-142.2305 45.738,0 84.809,24.5005 84.809,68.0505 0,19.731 -15.508,21.801 -34.34,21.801 -9.41,0 -25.59,-0.711 -30.981,-0.711 -25.539,0 -41.051,25.199 -41.051,50.36 0,41.48 52.5,42.179 87.5,42.179 80.122,0 123.161,-12.219 123.161,-98.668 C 387.809,76.0195 319.84,5.23047 198.711,5.23047 51.2891,5.23047 -0.511719,113.441 -0.511719,228.398 c 0,148.364 67.972619,238.872 202.581719,238.872 53.828,0 146.051,-15.668 146.051,-84.379"
             style="fill:#455b24;fill-opacity:1;fill-rule:nonzero;stroke:none"
             id="path34" /><path
             d="m 509.34,304.488 c 0,-1.367 0.699,-5.429 3.359,-5.429 2.731,0 5.391,6.8 6.09,9.531 10.082,32.66 38.359,51.719 70.66,51.719 39.692,0 57.891,-25.86 57.891,-61.911 0,-25.199 -18.86,-57.148 -47.11,-57.148 -12.808,0 -23.589,6.801 -36.359,6.801 -41.723,0 -49.141,-42.192 -49.141,-76.211 0,-32.66 9.45,-61.918 9.45,-93.9103 0,-44.2188 -22.891,-59.8789 -55.86,-59.8789 -47.148,0 -54.531,37.418 -54.531,72.1484 0,38.0818 5.391,72.7698 5.391,111.5628 0,61.91 -16.84,84.367 -16.84,114.328 0,35.359 22.191,46.922 53.172,46.922 39.019,0 47.769,-25.864 53.828,-58.524"
             style="fill:#455b24;fill-opacity:1;fill-rule:nonzero;stroke:none"
             id="path36" /><path
             d="m 752.539,199.57 c 0,-44.218 14.18,-79.609 55.902,-79.609 53.161,0 60.539,66.019 60.539,103.437 0,29.922 -5.351,57.852 -5.351,87.774 0,37.418 10.75,61.918 51.801,61.918 41.05,0 53.199,-27.891 53.199,-64.649 0,-38.089 -8.75,-74.851 -8.75,-113.64 0,-59.84 13.441,-99.3322 13.441,-126.5627 0,-31.2891 -26.25,-46.25 -55.199,-46.25 -43.043,0 -49.801,40.8203 -57.18,40.8203 -12.82,0 -25.589,-40.1484 -90.203,-40.1484 -89.527,0 -112.379,72.8086 -112.379,146.9878 0,16.993 1.993,42.852 1.993,59.18 0,26.563 -5.391,55.82 -5.391,82.344 0,39.449 15.508,59.879 53.199,59.879 23.52,0 53.828,-10.231 53.828,-48.321 0,-44.921 -9.449,-63.281 -9.449,-123.16 m 54.41,272.852 c 0,-29.262 -20.187,-63.281 -45.07,-63.281 -34.34,0 -66.649,16.328 -66.649,54.41 0,40.859 24.93,59.219 59.219,59.219 26.922,0 52.5,-22.461 52.5,-50.348 m 145.512,-6.133 c 0,-34.019 -20.859,-55.117 -55.191,-55.117 -28.95,0 -56.532,19.726 -56.532,50.348 0,32 20.864,61.25 54.492,61.25 36.372,0 57.231,-20.43 57.231,-56.481"
             style="fill:#455b24;fill-opacity:1;fill-rule:nonzero;stroke:none"
             id="path38" /><path
             d="m 1061.72,367.77 c 34.33,0 52.5,-18.36 52.5,-53.079 16.83,31.989 53.2,47.61 88.2,47.61 80.08,0 118.44,-43.512 118.44,-127.891 0,-23.121 -2.03,-43.551 -2.03,-66.012 0,-56.449 7.42,-64.609 7.42,-97.3082 0,-34.6796 -19.53,-55.7812 -54.53,-55.7812 -32.31,0 -51.8,19.0703 -51.8,52.3906 0,36.7498 4.03,70.7808 4.03,107.4998 0,38.121 -4.03,87.77 -51.84,87.77 -36.99,0 -60.59,-23.789 -60.59,-62.578 0,-63.942 4.73,-90.512 4.73,-131.3324 0,-33.3203 -20.2,-55.1094 -54.53,-55.1094 -28.24,0 -53.17,22.461 -53.17,51.0508 0,31.2891 6.72,56.449 6.72,121.09 0,66.019 -8.04,97.969 -8.04,123.172 0,36.718 16.13,58.508 54.49,58.508"
             style="fill:#455b24;fill-opacity:1;fill-rule:nonzero;stroke:none"
             id="path40" /><path
             d="m 1635.55,209.219 c -30.98,-50.309 -130.59,-31.949 -177.7,-42.848 -10.12,-2.742 -16.17,-7.461 -16.17,-19.07 0,-36.711 38.4,-53.0393 70.04,-53.0393 70.66,0 60.55,44.8793 100.27,44.8793 22.89,0 46.45,-18.36 46.45,-42.8519 0,-60.5508 -95.59,-88.43754 -144.73,-88.43754 -108.36,0 -167.58,62.57814 -167.58,171.44944 0,115 43.75,193.898 165.59,193.898 69.96,0 138.63,-38.078 138.63,-111.558 0,-18.403 -5.39,-36.762 -14.8,-52.422 m -78.09,57.191 c 0,27.891 -38.36,34.02 -57.89,34.02 -33.63,0 -56.52,-23.828 -56.52,-57.192 0,-14.258 16.83,-14.258 37.03,-14.258 30.94,0 77.38,0.668 77.38,37.43"
             style="fill:#455b24;fill-opacity:1;fill-rule:nonzero;stroke:none"
             id="path42" /></g></g><path
         d="m 1376.64,1095.78 c -13.79,-22.34 -24.45,-46.33 -31.25,-71.64 13.83,-11.09 16.72,6.45 20.08,16.84 5.04,17.77 13.91,33.9 22.58,50.11 -3.83,1.57 -7.62,3.13 -11.41,4.69 z M 1788.67,1820 c -13.79,-3.63 -27.62,-10.08 -41.76,-8.32 -13.59,-6.88 -31.68,-7.34 -43.36,3.48 -10.43,7.07 -20.58,-10.63 -32.42,-8.95 -12.93,1.29 -24.8,-8.4 -37.11,-2.11 -13.16,6.21 -20.66,-10.35 -31.21,-15.74 -11.52,-3.24 -21.36,-9.81 -32.07,-15.59 -10.08,-8.39 -21.48,-2.22 -32.26,1.1 -21.76,-11.37 -32.82,-34.77 -52.74,-48.21 -10.19,-9.14 -22.73,1.68 -33.12,-6.95 -7.85,-8.01 -13.21,-18.63 -23.21,-22.26 -14.29,-15.32 -26.25,-33.79 -42.14,-47.04 -22.35,-7.69 -21.18,-35.46 -29.34,-53.98 -9.96,-19.3 -15.94,-40.31 -21.52,-61.09 -7.27,-10.75 -9.42,-23.79 -15.2,-35.12 -1.09,-28.83 -19.96,-54.42 -17.46,-83.83 5.04,-58.59 9.37,-117.38 16.72,-175.74 3.91,-27.19 8.24,-54.26 18.71,-79.81 4.92,-16.44 9.96,-32.81 22.23,-45.39 6.05,-5.66 14.37,-28.28 19.76,-10.78 16.45,26.95 31.21,54.92 46.41,82.58 -2.74,19.92 1.13,40.82 -8.01,59.73 -13.75,45.54 -29.22,90.5 -46.84,134.76 -9.57,26.14 -19.18,52.27 -28.78,78.4 27.85,-65.47 52.34,-132.3 74.25,-199.96 8.87,-19.22 13.75,-40.27 10.75,-61.45 3.82,-14.96 9.92,12.93 14.72,16.57 9.22,18.59 21.68,36.52 28.95,55.47 -11.76,85.31 -45.82,164.96 -71.45,246.56 -5.55,18.28 -10.19,36.79 -15.04,55.27 17.5,-61.6 39.61,-121.72 60.71,-182.19 12.34,-32.22 19.06,-65.97 25.7,-99.76 2.03,-19.65 7.23,-15.9 14.02,-0.04 11.92,20.86 23.83,41.72 35.74,62.58 -6.05,25.19 -6.6,51.48 -14.6,76.4 -10.28,54.53 -23.21,108.52 -36.65,162.35 -6.95,27.61 -10.89,55.9 -16.32,83.86 8.59,-32.42 11.87,-65.89 22.03,-97.96 13.4,-49.3 23.9,-99.34 34.41,-149.26 8.05,-22.15 5.82,-46.33 13.75,-68.48 14.38,24.38 28.71,48.75 43.05,73.13 -6.06,28.82 -7.23,58.43 -12.27,87.5 -9.41,73.59 -14.1,147.69 -18.24,221.72 8.75,-86.02 12.81,-172.5 25.9,-258.01 1.64,-15.51 1.37,-31.29 6.91,-46.06 17.43,31.45 35.78,62.42 52.5,94.26 -6.99,28.75 -3.67,58.95 -6.75,88.28 -2.27,50.12 -3.25,100.35 0.03,150.43 -0.35,-44.18 -1.13,-88.47 1.37,-132.65 1.84,-32.74 0.7,-65.79 5.31,-98.25 6.37,-10.11 13.01,15.98 19.5,21.64 18.28,29.18 32.15,60.79 47.15,91.72 -8.52,26.68 -2.93,55 -3.09,82.42 1.68,26.25 2.85,52.62 11.64,77.66 -10.04,-43.67 -11.09,-88.94 -10.2,-133.51 0.16,-10.12 2.5,-32.78 10.67,-13.05 20.19,29.57 36.25,62.77 50.58,94.84 5.86,5.63 12.93,18.56 18.79,27.35 3.87,7.65 16.21,23.32 17.58,24.64 -21.95,-33.9 -43.08,-68.28 -59.61,-105.23 -12.97,-14.92 4.81,-14.06 13.36,-4.73 16.25,11.88 32.46,23.79 48.63,35.78 -18.12,-16.75 -39.06,-30.58 -59.61,-43.98 -15.19,-0.74 -17.89,-18.05 -26.13,-28.16 -13.55,-32.74 -32.5,-64.61 -48.04,-95.39 34.6,15.23 63.2,40.54 94.29,61.56 23.32,17.5 47.85,33.36 70.98,51.13 -33.36,-29.06 -71.52,-52.3 -106.56,-79.37 -19.14,-14.18 -38.83,-28.01 -60.71,-37.66 -7.22,-9.18 -15.31,-26.8 -23.4,-39.06 -11.05,-17.07 -22.85,-33.71 -32.22,-51.84 41.52,13.79 78.83,37.54 117.93,56.8 38.63,21.87 78.63,41.33 116.05,65.23 -42.34,-27.89 -86.87,-52.46 -131.76,-76.01 -34.33,-16.45 -67.53,-35.39 -102.93,-49.53 -15.58,-27.31 -31.21,-54.65 -46.79,-81.96 78.9,29.92 157.07,61.72 233.9,96.68 19.5,8.63 39.57,15.94 59.42,23.83 -41.95,-19.26 -84.65,-36.99 -126.68,-56.13 -49.38,-19.77 -98.24,-40.71 -147.54,-60.55 -11.09,-4.65 -23.91,-7.5 -27.34,-20.7 -13.48,-24.34 -28.75,-50.12 -41.14,-73.64 34.38,13.52 67.7,30 103.28,40.59 64.07,21.21 128.64,40.98 192.78,62.11 9.02,2.38 34.37,9.77 12.26,2.62 -60.07,-20.28 -120.47,-39.61 -180.7,-59.34 -43.83,-15.16 -88.71,-29.33 -129.45,-51.48 -15.08,-25.63 -29.07,-52.23 -43.71,-78.21 24.41,12 49.37,22.43 75.78,29.14 77.73,22.07 156.64,39.69 235.31,57.89 -84.84,-24.37 -171.84,-40.62 -256.05,-67.26 -20.47,-5.94 -41.57,-13.79 -57.74,-27.93 -12.07,-22.23 -24.1,-44.49 -36.17,-66.72 28.08,16.37 60.51,20.39 91.01,30.2 49.65,9.96 99.93,15.66 149.89,23.24 19.61,1.76 39.14,4.26 58.67,6.56 -31.02,-6.99 -62.38,-11.33 -93.87,-15.35 -32.07,-3.59 -64.1,-7.46 -95.74,-14.26 -30.78,-6.25 -62.77,-11.52 -91.25,-24.92 -10.74,-7.03 -24.65,-10.31 -28.44,-24.1 -5.82,-10.59 -11.79,-21.13 -17.26,-31.92 22.15,1.76 44.68,1.8 65.15,11.68 41.02,17.19 86.33,18.28 127.85,33.83 30.86,10.31 62.82,18.28 92.78,30.7 25.9,16.29 57.93,27.66 74.22,55 5.74,17.19 12.26,33.91 25.19,47.08 16.72,21.48 32.97,43.43 51.29,63.63 -1.13,13.08 -3.32,26.4 4.96,37.73 8.87,16.49 9.65,36.21 23.05,50.28 5.08,10.58 3.94,23.12 -0.31,33.47 2.73,25.98 4.84,52.07 15.47,76.25 -5.86,19.38 -12.66,39.1 -11.88,59.92 0.31,15.04 4.84,29.85 6.76,44.77 -14.46,-1.6 -12.78,17.27 -15.59,27.23 -0.51,13.63 -12.03,23.28 -11.68,37.38 -0.7,11.05 -17.81,10.74 -21.95,23.2 -10.24,7.74 -6.33,21.72 -11.25,31.21 -12.85,12.78 -10.27,33.56 -10.98,50.55 -0.82,5 -1.64,10 -2.46,15 z m -430.04,-756.84 c -4.37,-12.96 -9.57,-25.86 -13.24,-39.02 3.75,13.13 8.87,26.06 13.24,39.02 z"
         style="fill:#455b24;fill-opacity:1;fill-rule:nonzero;stroke:none"
         id="path44" /><path
         d="m 1206.72,1069.73 c 13.24,-16.57 28.59,-31.18 45.98,-43.21 12.22,7.46 -0.36,14.46 -7.35,19.81 -12.15,8.67 -21.99,19.8 -31.99,30.78 -2.19,-2.46 -4.41,-4.92 -6.64,-7.38 z m -438.79,510.11 c -1.02,-11.44 0.121,-23.71 -5.039,-33.98 1.519,-12.23 -3.051,-26.09 -14.45,-32.03 -8.211,-6.02 2.5,-18.52 -2.031,-27.11 -4.5,-9.45 -0.359,-21.1 -8.48,-28.75 -8.321,-8.32 2.23,-18.56 3.48,-28.01 -0.672,-9.65 1.641,-18.91 3.16,-28.63 3.629,-9.92 -4.179,-16.95 -9.648,-24.22 2.738,-19.65 17.539,-34.41 22.308,-53.2 4.219,-10.24 -7.429,-16.8 -3.679,-27.07 3.949,-8.17 10.551,-15.12 10.59,-23.68 7.769,-15.04 18.589,-29.14 24.339,-44.84 -0.242,-19.06 21.211,-25.74 33.079,-36.99 11.961,-12.81 26.293,-23.09 40.589,-32.97 6.25,-8.44 15.582,-13.63 22.622,-21.09 21.64,-8.68 35.929,-29.97 59.019,-36.06 45.902,-12.11 91.831,-24.8 138.201,-35.08 21.76,-4.41 43.52,-8.47 65.82,-7.46 13.83,-0.74 27.66,-1.37 40.55,4.57 5.98,3.05 25.47,3.21 13.59,12.07 -16.01,19.85 -33.28,38.64 -50.19,57.74 -15.9,3.32 -30.74,11.95 -47.62,10.11 -38.4,1.96 -76.8,2.43 -115.23,1.06 -22.5,-0.16 -45,-0.35 -67.5,-0.55 57.379,3.36 114.88,3.79 172.3,2.07 17.03,1.53 34.41,-0.51 49.69,-8.51 12.42,-1.21 -7.15,11.01 -8.6,15.66 -11.64,12.07 -21.87,26.45 -34.33,37.07 -68.09,14.3 -137.931,10.04 -206.99,12.74 -15.39,0.74 -30.75,2.26 -46.14,3.59 51.64,-3.44 103.359,-2.97 155.08,-3.4 27.89,0.66 55.43,-3.44 82.89,-7.58 15.51,-3.79 14.07,1.17 3.87,10.67 -12.62,14.72 -25.23,29.45 -37.89,44.18 -20.82,2.22 -40.98,8.98 -62.11,9.68 -44.258,7 -88.828,11.84 -133.442,16.25 -22.886,2.27 -45.468,6.92 -68.238,10.43 26.988,-2.3 53.359,-8.9 80.512,-9.92 41.129,-3.2 82.066,-8.83 122.929,-14.41 19.019,0.11 36.789,-8.17 55.819,-8.17 -14.65,17.54 -29.26,35.08 -43.91,52.62 -23.588,3.2 -46.401,10.39 -69.92,14.45 -58.52,12.86 -116.168,29.46 -173.629,46.41 67.808,-16.72 134.719,-37.15 203.359,-50.43 12.18,-2.97 24.141,-7.46 36.91,-7.27 -19.218,21.8 -37.769,44.15 -57.422,65.55 -23.789,2.46 -45.859,13.2 -69.027,18.87 -38.711,11.87 -77.223,24.8 -114.41,40.9 33.519,-12.27 66.988,-24.92 101.289,-35 25.391,-7.5 50.23,-17.35 76.172,-22.7 9.418,2.11 -8.633,14.26 -11.133,20.7 -17.23,21.84 -37.5,40.98 -56.949,60.79 -22.621,0.78 -42.66,12.73 -63.559,20.07 -19.531,8.4 -39.261,16.45 -55.902,29.97 30.473,-19.5 64.652,-32.62 98.793,-44.07 7.738,-2.65 25.59,-7.03 12.808,4.57 -16.992,23.4 -37.89,44.61 -58.39,64.22 -2.66,6.02 -10.551,14.88 -15.668,21.72 -4.762,5.04 -13.32,18.67 -13.981,20.08 19.84,-25.9 40.231,-51.33 63.829,-73.95 7.851,-13.9 12.031,-0.15 7.261,8.87 -4.652,15.59 -9.261,31.17 -14.019,46.72 7.847,-18.32 12.687,-38.01 17.258,-57.27 -3.551,-11.79 8.871,-18.51 14.339,-27.54 21.172,-19.18 40.27,-42.26 59.45,-62.46 -2.149,30.47 -13.629,59.11 -21.129,88.44 -6.989,22.5 -12.379,45.43 -19.61,67.85 13.051,-33.28 20.352,-68.59 31.371,-102.58 5.618,-18.39 10.778,-37.14 12.149,-56.36 5,-8.05 16.211,-18.95 23.359,-28.44 9.961,-13.05 19.449,-26.56 30.66,-38.59 0.821,35.31 -7.109,70.11 -11.129,105.07 -6.14,35.32 -10.039,71.02 -18.05,105.98 9.691,-39.76 16.289,-80.31 21.992,-120.82 3.168,-30.59 8.558,-60.98 9.648,-91.72 16.559,-19.29 33.09,-38.59 49.65,-57.85 -1.33,68.09 -4.26,136.17 -9.92,204.06 -1.25,17.19 -1.37,34.46 -1.96,51.68 3.21,-37.15 5.08,-74.41 8.21,-111.6 1.6,-42.89 4.25,-85.7 5.93,-128.59 0.55,-9.69 -0.82,-20.2 8.32,-26.41 14.85,-16.87 30.32,-35.47 44.81,-51.33 -0.94,29.81 -4.38,59.65 -2.77,89.57 1.28,54.5 3.82,108.95 5.19,163.44 0.63,7.5 1.95,28.79 1.37,10.04 -0.94,-51.17 -2.7,-102.34 -4.06,-153.52 -0.36,-37.42 -1.8,-75.39 3.94,-112.38 15.43,-18.44 31.84,-36.29 47.62,-54.49 -2.46,21.8 -3.6,43.59 -1.52,65.51 4.33,65.11 12.38,129.88 19.96,194.65 -4.54,-71.14 -15.86,-141.68 -18.48,-212.93 -1.06,-17.19 -0.82,-35.36 5.51,-51.53 13.67,-15.19 27.3,-30.43 40.93,-45.62 -4.8,25.82 0.94,51.56 1.76,77.42 5.94,40.43 15.32,80.19 23.13,120.23 3.98,15.39 7.42,30.9 10.93,46.37 -3.08,-25.47 -8.32,-50.47 -13.86,-75.51 -5.98,-25.35 -11.72,-50.74 -15.16,-76.64 -3.63,-25.12 -8.32,-50.86 -5.86,-76.17 2.42,-10.08 1.14,-21.52 10.59,-28.16 6.48,-7.31 12.85,-14.69 19.57,-21.8 4.69,17.3 10.78,34.45 8.83,52.69 -1.92,35.86 9.57,70.63 9.06,106.41 0.55,26.25 3.16,52.74 1.87,78.87 -5.31,24.14 -5.27,51.56 -21.64,71.37 -11.52,9.02 -22.46,18.55 -28.94,31.95 -11.8,18.55 -24.06,36.87 -34.46,56.29 -10.27,2.69 -20.97,4.65 -27.38,14.06 -10.12,11.17 -24.92,17.15 -31.95,31.13 -6.68,6.76 -16.52,9.3 -25.55,8.91 -18.98,9.14 -38.28,17.81 -53.79,32.46 -16.329,0.82 -33.2,1.02 -48.79,7.27 -11.359,4.33 -21.398,11.79 -32.262,17.34 -2.699,-11.45 -16.597,-5.04 -24.918,-4.49 -10.55,3.36 -20.98,-2.78 -31.601,1.29 -8.641,2.46 -13.008,-10.59 -23.68,-10.36 -8.629,-5.7 -18.199,1.06 -26.75,-0.07 -13.211,-6.33 -28.328,1.29 -41.449,5.39 -4.02,0.74 -8.051,1.48 -12.07,2.22 z m 458.67,-532.69 c 8.71,-6.84 17.11,-14.3 26.1,-20.67 -8.99,6.41 -17.39,13.83 -26.1,20.67 z"
         style="fill:#455b24;fill-opacity:1;fill-rule:nonzero;stroke:none"
         id="path46" /></g></g></svg>
