<?xml version="1.0" encoding="utf-8"?>
<!-- Generator: Adobe Illustrator 16.0.3, SVG Export Plug-In . SVG Version: 6.00 Build 0)  -->
<!DOCTYPE svg PUBLIC "-//W3C//DTD SVG 1.1//EN" "http://www.w3.org/Graphics/SVG/1.1/DTD/svg11.dtd">
<svg version="1.1" xmlns="http://www.w3.org/2000/svg" xmlns:xlink="http://www.w3.org/1999/xlink" x="0px" y="0px" width="320px"
	 height="340px" viewBox="0 0 320 340" enable-background="new 0 0 320 340" xml:space="preserve">
<g id="svg2920" xmlns:svg="http://www.w3.org/2000/svg" xmlns:rdf="http://www.w3.org/1999/02/22-rdf-syntax-ns#" xmlns:dc="http://purl.org/dc/elements/1.1/" xmlns:inkscape="http://www.inkscape.org/namespaces/inkscape" xmlns:sodipodi="http://sodipodi.sourceforge.net/DTD/sodipodi-0.dtd" xmlns:cc="http://creativecommons.org/ns#" sodipodi:version="0.32" inkscape:version="0.46" sodipodi:docname="Naturfreunde.svg" inkscape:output_extension="org.inkscape.output.svg.inkscape">
	<g>
		<path fill="none" d="M167.043,115.603c0.729-5.815-6.184-14.179-10.543-10.905c-2.908,0.362-9.816,19.266-9.816,22.539
			C156.5,126.871,165.226,117.786,167.043,115.603z"/>
		<path fill="#ED398C" d="M129.235,134.507c-1.456,7.636-7.632,9.088-11.999,14.179c-12.719,18.538-18.172,29.808-18.172,34.896
			c12.72,0,36.348-14.541,42.895-18.904c7.998-6.177,9.45-13.085,12.357-14.175c3.273-0.366,5.456,3.635,14.543,13.085
			c11.271,11.633,20.359,14.906,33.079,16.724c0-16.724,1.093-26.54-3.27-42.536c-5.091-12.72-9.45-15.993-9.088-17.81
			c0-0.728,5.818-4.001,15.269-15.269c8.726-13.089,12.361-23.632,12.361-38.173L176.857,90.52
			C185.58,63.256,201.938,30.901,184.49,4c-9.813,9.088-21.449,26.174-25.446,36.352c-10.181,20.359-12.361,26.174-16.72,53.803
			c-8.364-1.817-24.356-6.181-39.625-9.45c-7.636-0.728-11.271-1.821-12.361-0.365c-3.273,5.818,3.997,18.541,5.815,22.176
			C106.331,123.964,115.785,131.234,129.235,134.507z M156.5,104.698c4.359-3.273,11.271,5.09,10.543,10.905
			c-1.817,2.183-10.543,11.268-20.359,11.633C146.684,123.963,153.592,105.06,156.5,104.698z"/>
		<path fill="#ED398C" d="M58.345,146.865c0-3.27-1.818-4.725-3.998-9.088c-2.545-8.36-3.997-12.723-6.542-21.811
			c-7.998-21.811-7.998-31.627-12.361-38.169c-3.635,4.725-7.998,6.542-10.181,12.723c-7.995,18.903,0,38.897,3.638,56.345
			C9.271,150.504,2,157.774,2,158.502c0,2.542,7.271,6.542,10.905,7.632c7.998,3.635,12.723,5.453,21.811,3.273
			C43.442,166.862,57.621,154.139,58.345,146.865z"/>
		<path fill="#ED398C" d="M219.027,172.314c6.908,7.998,31.266-5.09,33.807-4c3.273,1.456,2.911,6.18,4.363,8.364
			c7.273,9.815,13.085,16.357,17.447,14.175c4.729-3.997,10.551-21.811,9.088-27.264c-1.09-5.453-4.359-6.905-4.721-11.995
			c29.085-5.818,35.258-17.448,38.169-23.632c-9.446-6.177-27.991,3.273-38.169,3.273c1.451-21.445,14.541-39.625,2.904-50.53
			c-1.453-1.456-2.904-2.908-5.453-2.908c-2.18,2.18-6.181,5.087-14.541,19.266c-6.177,9.816-9.449,12.727-12.357,24.722
			l-29.809-10.178c-0.729,13.447-2.546,19.993,1.451,26.17c4.729,7.636,13.451,7.636,12.727,12.361
			C233.568,150.504,211.758,164.317,219.027,172.314z"/>
		<path fill="#ED398C" d="M83.793,106.878c-4.725,2.184-6.181,4.725-11.268,10.906c-10.181,13.451-13.451,21.814-6.181,35.99
			C84.155,146.141,96.154,104.699,83.793,106.878z"/>
		<path fill="#ED398C" d="M93.244,166.133c-10.54-5.087-14.541-7.998-20.355-7.633c-4.725,1.452-9.088,3.998-21.083,3.998
			c-2.545,16.724-11.999,29.085,2.542,38.896c1.093,1.456,2.183,3.639,3.273,3.639c8.726,0.725,8.36-15.268,6.181-22.904
			C85.974,185.402,80.524,175.225,93.244,166.133z"/>
	</g>
	<g>
		<path fill="#00A5EB" d="M132.87,313.73c-5.453-8.727-7.998-12.361-13.085-22.539c-2.545-3.635-2.911-7.273-4.363-8.363
			c-2.911-1.456-12.723-1.09-16.358,0c-4.363,0.365-8.726,0-14.179,0.365c-4.001,0.725-6.181,4-8.726,2.18
			c-1.456-1.455-3.635-6.181-4.363-9.453c-5.453-7.271-7.27-13.09-11.268-21.449c-18.903-27.988-23.632-34.534-24.36-38.896
			c33.448,0,59.984-2.546,58.532-2.546c13.813-3.27,14.541-14.175,30.171-23.628c2.907-2.546,4.363-4.726,6.542-5.818
			c15.996-2.908,21.449,10.908,29.082,10.908c3.643,0,3.643-2.907,6.546-3.639c-12.723-10.54-20.359-12.357-26.901-12.357
			c-10.178,0.728-31.627,23.629-38.897,26.902c-2.908,2.183-20.359,1.455-25.084,2.183c-19.631,2.542-36.717,0.724-47.623,4.359
			c0,1.456,6.542,15.634,25.812,45.077c5.815,7.998,7.632,11.999,13.451,20.721c2.18,5.092,4.725,9.82,5.087,11.271
			c1.09,0.365,33.444-1.814,33.444-1.814s6.181,8.719,6.181,9.813c0,2.908-3.27,4.729-2.908,7.998
			c1.09,7.637,6.181,8.727,14.179,10.54c-0.362,4.001-2.545,6.908-0.728,10.181c4.363,7.998,11.271,2.18,14.906,2.546
			c1.452,1.452,1.452,2.907,2.18,3.632c2.183,1.82,11.995,4.004,14.178,4.004c6.542,0,18.179-2.91,15.63-10.182
			C157.954,334.447,140.141,326.814,132.87,313.73z"/>
		<path fill="#00A5EB" d="M261.923,207.576c-11.268,1.453-15.634,2.546-18.538,0.729c-1.817-0.729-8.726-9.088-34.537-21.814
			c-7.274-3.998-11.631-7.633-18.176-5.814c-7.271,1.816-12.361,6.18-43.26,24.718c-4.001,3.636-14.541,6.546-11.999,12.361
			c2.183,6.542,25.084,10.178,31.63,8.726c11.629-2.184,14.906-10.178,19.266-9.453c9.092,2.91,18.903,20.359,33.447,40.352
			c7.995,14.906,14.903,23.994,8.723,31.627c-5.453,6.184-12.361,0.369-17.086-6.177c-14.541-17.452-20.359-22.542-23.99-30.536
			c-2.184,0.727-2.912,2.18-4.729,2.18c14.543,17.813,18.899,38.168,34.537,44.353c8.726,2.907,20.718-11.634,20.718-20.362
			c33.447,0,52.714,1.094,77.432-9.813l-33.444-63.257C274.646,208.305,270.283,205.76,261.923,207.576z"/>
		<path fill="#00A5EB" d="M184.49,290.102c-7.998-10.91-13.813-15.635-19.99-29.086c-2.184,2.546-3.639,2.546-6.546,3.998
			c23.995,30.902,41.077,62.891,55.621,39.99C201.576,308.273,193.578,301.369,184.49,290.102z"/>
		<path fill="#00A5EB" d="M176.857,318.818c-5.818-2.543-9.815-9.088-13.088-13.816c-5.815-4.726-20.356-26.537-23.629-30.533
			c-1.09,0.727-2.545,1.451-3.998,3.27c10.178,20.361,16.721,30.174,32.355,44.353c6.542,3.636,19.631,1.813,32.351-7.632
			C191.036,311.182,187.4,322.453,176.857,318.818z"/>
	</g>
</g>
</svg>
