<?xml version="1.0" encoding="UTF-8" standalone="no"?>
<svg
   xmlns:dc="http://purl.org/dc/elements/1.1/"
   xmlns:cc="http://creativecommons.org/ns#"
   xmlns:rdf="http://www.w3.org/1999/02/22-rdf-syntax-ns#"
   xmlns:svg="http://www.w3.org/2000/svg"
   xmlns="http://www.w3.org/2000/svg"
   version="1.1"
   id="svg2"
   xml:space="preserve"
   width="395.55466"
   height="395.55466"
   viewBox="0 0 395.55466 395.55466"><metadata
     id="metadata8"><rdf:RDF><cc:Work
         rdf:about=""><dc:format>image/svg+xml</dc:format><dc:type
           rdf:resource="http://purl.org/dc/dcmitype/StillImage" /><dc:title></dc:title></cc:Work></rdf:RDF></metadata><defs
     id="defs6"><clipPath
       clipPathUnits="userSpaceOnUse"
       id="clipPath20"><path
         d="M 0,296.666 H 296.666 V 0 H 0 Z"
         id="path18" /></clipPath></defs><g
     id="g10"
     transform="matrix(1.3333333,0,0,-1.3333333,0,395.55467)"><path
       d="M 0,0 H 296.666 V 296.666 H 0 Z"
       style="fill:#eb1b27;fill-opacity:1;fill-rule:nonzero;stroke:none"
       id="path12" /><g
       id="g14"><g
         id="g16"
         clip-path="url(#clipPath20)"><g
           id="g22"
           transform="translate(50.0991,96.0127)"><path
             d="m 0,0 c 0.468,1.773 0.924,3.516 1.387,5.255 2.215,8.297 4.439,16.595 6.636,24.899 0.168,0.632 0.324,0.839 1.056,0.677 8.371,-1.853 16.848,-2.589 25.409,-2.228 7.991,0.332 15.787,1.701 23.226,4.763 10.961,4.512 19.116,12.03 24.326,22.71 2.927,6.004 6.141,11.854 9.799,17.445 5.809,8.882 12.569,16.922 21.069,23.386 7.102,5.399 14.941,9.391 23.487,11.909 3.901,1.15 7.908,1.939 11.865,2.888 0.156,0.036 0.319,0.036 0.581,0.065 v -0.773 c 0,-10.366 -0.005,-20.731 0.012,-31.097 0.002,-0.597 -0.172,-0.83 -0.757,-0.978 -10.078,-2.53 -18.085,-8.197 -24.518,-16.242 -4.846,-6.06 -8.724,-12.721 -12.13,-19.66 C 108.495,37.003 105.062,31.307 100.777,26.14 94.687,18.792 87.433,12.853 79.083,8.239 69.714,3.065 59.679,-0.137 49.157,-1.897 43.25,-2.885 37.311,-3.514 31.313,-3.418 27.215,-3.354 23.104,-3.361 19.014,-3.095 12.743,-2.687 6.548,-1.683 0.446,-0.156 0.314,-0.12 0.19,-0.067 0,0"
             style="fill:#ffffff;fill-opacity:1;fill-rule:nonzero;stroke:none"
             id="path24" /></g><g
           id="g26"
           transform="translate(267.8613,204.019)"><path
             d="m 0,0 c -0.141,-0.285 -0.241,-0.509 -0.361,-0.724 -9.094,-16.042 -18.19,-32.085 -27.283,-48.129 -6.454,-11.388 -12.901,-22.779 -19.355,-34.167 -5.231,-9.231 -10.472,-18.459 -15.689,-27.697 -0.29,-0.51 -0.595,-0.7 -1.186,-0.7 -10.99,0.018 -21.983,0.012 -32.974,0.012 h -0.768 c -0.015,0.287 -0.04,0.533 -0.04,0.778 -0.004,17.9 -0.006,35.802 0.013,53.703 0,0.48 0.136,1.017 0.373,1.433 5.334,9.303 12.638,16.521 22.454,21.032 1.882,0.865 3.852,1.542 5.905,2.355 v -29.37 c 0.214,0.294 0.325,0.423 0.406,0.567 5.654,9.977 11.306,19.955 16.96,29.933 4.317,7.619 8.643,15.234 12.961,22.851 1.441,2.54 2.884,5.076 4.307,7.626 0.215,0.388 0.439,0.556 0.91,0.554 C -22.471,0.042 -11.571,0.047 -0.675,0.046 -0.474,0.046 -0.273,0.019 0,0"
             style="fill:#ffffff;fill-opacity:1;fill-rule:nonzero;stroke:none"
             id="path28" /></g><g
           id="g30"
           transform="translate(148.2109,204.0649)"><path
             d="m 0,0 c -0.464,-1.671 -0.898,-3.252 -1.344,-4.831 -2.079,-7.394 -4.17,-14.785 -6.222,-22.186 -0.192,-0.68 -0.468,-0.876 -1.178,-0.874 -10.991,0.027 -21.98,0.013 -32.97,0.035 -0.678,0.001 -0.924,-0.198 -1.108,-0.858 -4.186,-15.001 -8.404,-29.992 -12.605,-44.991 -0.249,-0.888 -0.433,-1.533 -1.651,-1.665 -4.849,-0.525 -9.695,-0.836 -14.572,-0.686 -5.292,0.161 -10.528,0.77 -15.68,2.012 -0.514,0.123 -1.022,0.265 -1.616,0.419 4.126,15.256 8.236,30.456 12.369,45.732 h -32.273 c 0.221,0.811 0.413,1.537 0.617,2.26 2.337,8.309 4.681,16.615 7.001,24.93 0.151,0.542 0.358,0.717 0.934,0.717 C -67.119,-0.001 -33.939,0 -0.76,0 Z"
             style="fill:#ffffff;fill-opacity:1;fill-rule:nonzero;stroke:none"
             id="path32" /></g></g></g></g></svg>
