<?xml version="1.0" encoding="UTF-8" standalone="no"?>
<svg xmlns:dc="http://purl.org/dc/elements/1.1/" xmlns:cc="http://creativecommons.org/ns#"
    xmlns:rdf="http://www.w3.org/1999/02/22-rdf-syntax-ns#" xmlns="http://www.w3.org/2000/svg" version="1.1" id="svg2"
    xml:space="preserve" width="304.0419" height="251.2153" viewBox="0 0 304.0419 251.2153"><metadata
     id="metadata8"><rdf:RDF><cc:Work
         rdf:about=""><dc:format>image/svg+xml</dc:format><dc:type
    rdf:resource="http://purl.org/dc/dcmitype/StillImage" /><dc:title></dc:title></cc:Work></rdf:RDF></metadata>
    <defs id="defs6"><clipPath
       clipPathUnits="userSpaceOnUse"
       id="clipPath18"><path
         d="M 0,300.468 H 300.468 V 0 H 0 Z"
         id="path16" /></clipPath></defs>
    <g id="g10" transform="matrix(1.3333333,0,0,-1.3333333,-48.940328,331.25303)"><g
       id="g12"><g
         id="g14"
         clip-path="url(#clipPath18)"><g
           id="g20"
           transform="translate(195.4199,227.6704)"><path
             d="m 0,0 c -1.402,1.047 -3.869,0.582 -5.477,-0.987 l -2.931,-2.861 c -0.996,-0.972 -2.911,-2.276 -4.182,-2.846 l -19.318,-8.676 c -1.213,-0.545 -3.451,-1.023 -4.804,-1.023 l -31.058,0.067 c -2.369,0 -4.338,-1.927 -4.39,-4.296 l -0.132,-6.109 c -0.024,-1.137 0.393,-2.203 1.173,-3.001 0.78,-0.797 1.832,-1.236 2.964,-1.236 l 32.293,1.497 c 1.451,0.068 3.471,0.266 4.358,0.5 0.939,0.246 2.777,1.229 4.032,2.028 l 19.464,12.405 c 0.86,0.548 2.603,1.688 3.048,2.082 0.588,0.523 2.261,2.88 2.332,2.979 L 0.19,-5.504 C 1.586,-3.537 1.503,-1.119 0,0"
             style="fill:#cf181f;fill-opacity:1;fill-rule:nonzero;stroke:none"
             id="path22" /></g><g id="g24" transform="translate(163.5117,212.3003)"><path
             d="m 0,0 c -1.213,-0.544 -3.451,-1.022 -4.804,-1.022 l -31.057,0.066 c -2.37,0 -4.339,-1.927 -4.39,-4.296 l -0.132,-6.109 c -0.025,-1.137 0.392,-2.203 1.173,-3.001 0.779,-0.797 1.832,-1.236 2.963,-1.236 l 32.293,1.497 c 1.451,0.068 3.472,0.267 4.358,0.5 C 1.343,-13.354 0,0 0,0"
             style="fill:#a61217;fill-opacity:1;fill-rule:nonzero;stroke:none"
             id="path26" /></g><g id="g28" transform="translate(184.8252,61.5283)"><path
             d="m 0,0 z m 45.872,85.627 c 0.784,0.869 1.162,2.013 1.039,3.137 -0.123,1.124 -0.741,2.158 -1.695,2.837 l -12.318,8.763 c -0.736,0.524 -1.602,0.801 -2.507,0.801 -1.405,0 -2.727,-0.68 -3.538,-1.819 L 1.188,63.278 c -1.024,-1.438 -2.1,-3.925 -2.45,-5.666 L -1.425,56.789 C -1.78,55.019 -1.63,52.282 -1.082,50.56 L 11.019,12.464 C 11.254,11.725 10.843,10.861 10.12,10.578 L -0.742,6.318 C -2.79,5.517 -4.334,3.634 -4.332,1.94 -4.33,0.011 -2.428,-1.5 0,-1.5 h 0.008 l 21.506,0.037 c 1.215,0.003 2.298,0.514 2.972,1.4 0.674,0.886 0.877,2.066 0.557,3.237 l -1.292,4.717 c -0.424,1.549 -0.737,2.832 -0.772,3.053 -0.037,0.296 -0.27,1.82 -0.52,3.382 l -5.816,36.429 c -0.175,1.093 0.341,2.839 1.084,3.662 z"
             style="fill:#393536;fill-opacity:1;fill-rule:nonzero;stroke:none"
             id="path30" /></g><g id="g32" transform="translate(228.627,153.188)"><path
             d="m 0,0 c -0.048,0.34 -0.128,0.717 -0.222,1.105 l -10.681,7.6 c -0.737,0.524 -1.603,0.801 -2.507,0.801 -1.405,0 -2.728,-0.68 -3.539,-1.819 l -7.813,-10.979 c 0.781,-1.159 1.676,-3.071 2.015,-4.334 l 5.358,-19.985 18.406,20.408 z"
             style="fill:#2e2a2b;fill-opacity:1;fill-rule:nonzero;stroke:none"
             id="path34" /></g><g id="g36" transform="translate(198.3232,202.4009)"><path
             d="m 0,0 c -0.259,1.124 -0.961,2.066 -1.978,2.655 l -8.075,4.672 c -0.643,0.373 -1.368,0.57 -2.097,0.57 -1.579,0 -2.998,-0.894 -3.704,-2.332 l -14.159,-28.836 c -0.632,-1.289 -1.949,-3.306 -2.876,-4.405 l -13.671,-16.21 c -0.9,-1.068 -2.68,-2.562 -3.884,-3.262 l -9.789,-5.684 c -2.061,-1.197 -3.053,-3.365 -2.308,-5.042 0.5,-1.128 1.68,-1.802 3.155,-1.802 0.719,0 1.472,0.165 2.177,0.478 l 11.057,4.92 c 0.643,0.286 2.779,1.249 3.25,1.591 0.341,0.248 1.873,1.56 2.635,2.22 l 17.446,15.121 c 2.248,1.95 2.611,2.664 2.713,2.962 0.133,0.276 0.736,1.275 1.55,2.486 L -0.614,-3.251 C 0.041,-2.278 0.26,-1.123 0,0"
             style="fill:#393536;fill-opacity:1;fill-rule:nonzero;stroke:none"
             id="path38" /></g><g id="g40" transform="translate(196.3457,205.0552)"><path
             d="m 0,0 -8.075,4.673 c -0.644,0.372 -1.368,0.569 -2.098,0.569 -1.579,0 -2.998,-0.892 -3.703,-2.33 l -8.332,-16.971 c 0.2,-0.174 0.38,-0.355 0.513,-0.54 l 8.893,-12.342 14.165,21.035 c 0.656,0.973 0.874,2.129 0.615,3.252 C 1.719,-1.531 1.017,-0.588 0,0"
             style="fill:#2e2a2b;fill-opacity:1;fill-rule:nonzero;stroke:none"
             id="path42" /></g><g id="g44" transform="translate(100.0142,152.9907)"><path
             d="m 0,0 -11.946,10.131 c -0.724,0.614 -1.567,0.938 -2.438,0.938 -1.375,0 -2.617,-0.841 -3.241,-2.196 l -20.066,-43.584 c -0.646,-1.404 -1.755,-3.652 -2.472,-5.011 l -18.912,-35.904 c -0.679,-1.291 -1.526,-3.131 -1.754,-4.002 -0.17,-0.646 -0.643,-2.401 -1.051,-3.9 l -1.282,-4.721 c -0.319,-1.172 -0.113,-2.352 0.563,-3.237 0.677,-0.885 1.761,-1.392 2.975,-1.392 l 21.507,0.002 c 1.054,0 2.066,0.296 2.85,0.834 0.943,0.648 1.484,1.6 1.483,2.612 -0.002,1.693 -1.549,3.572 -3.598,4.371 l -10.224,3.988 c -0.259,0.101 -0.429,0.251 -0.479,0.423 -0.05,0.172 0.012,0.389 0.176,0.613 l 22.763,31.174 c 0.944,1.291 2.385,3.453 3.212,4.82 L 1.006,-6.179 C 2.201,-4.205 1.759,-1.491 0,0"
             style="fill:#cf181f;fill-opacity:1;fill-rule:nonzero;stroke:none"
             id="path46" /></g><g id="g48" transform="translate(163.6318,228.2651)"><path
             d="m 0,0 c 3.803,-6.275 11.973,-8.281 18.249,-4.479 6.276,3.803 8.282,11.973 4.48,18.25 C 18.926,20.047 10.754,22.052 4.479,18.25 -1.797,14.447 -3.803,6.277 0,0"
             style="fill:#4f4c4d;fill-opacity:1;fill-rule:nonzero;stroke:none"
             id="path50" /></g><g id="g52" transform="translate(261.0547,61.5771)"><path
             d="M 0,0 Z M 3.535,3.128 2.253,7.849 C 1.88,9.222 1.352,11.032 1.112,11.69 0.85,12.41 -0.061,14.122 -0.783,15.366 l -18.779,32.35 c -0.68,1.172 -1.442,3.374 -1.631,4.715 l -6.235,44.178 c -0.246,1.745 -1.154,4.292 -2.067,5.8 l -31.488,51.971 c -0.784,1.294 -2.218,2.098 -3.743,2.098 -0.779,0 -1.545,-0.21 -2.212,-0.606 l -2.866,-1.698 c -1.141,-0.677 -3.303,-1.374 -4.628,-1.491 l -30.288,-2.668 c -1.349,-0.117 -3.496,0.265 -4.657,0.789 l -19.249,8.69 c -1.259,0.568 -3.141,1.884 -4.107,2.874 l -3.501,3.584 c -1.582,1.619 -4.04,2.117 -5.455,1.064 -1.495,-1.113 -1.595,-3.532 -0.226,-5.506 l 3.282,-4.733 c 0.176,-0.253 1.735,-2.49 2.314,-3.007 0.443,-0.396 2.184,-1.54 3.043,-2.089 l 19.443,-12.441 c 1.286,-0.823 3.083,-1.786 4.024,-2.036 0.886,-0.236 2.908,-0.437 4.36,-0.507 l 20.701,-1.002 c 1.103,-0.054 2.697,-0.919 3.344,-1.816 l 29.069,-40.344 c 0.812,-1.126 1.801,-3.211 2.16,-4.551 l 11.466,-42.757 c 0.533,-1.99 0.821,-3.06 1.388,-3.525 0.307,-0.436 0.791,-1.05 1.538,-1.989 L -12.2,11.059 c 0.16,-0.203 0.233,-0.406 0.196,-0.545 -0.038,-0.14 -0.203,-0.279 -0.443,-0.372 l -9.797,-3.821 c -2.05,-0.8 -3.596,-2.678 -3.598,-4.371 -0.002,-1.93 1.901,-3.445 4.333,-3.448 L 0,-1.5 c 1.213,0 2.296,0.508 2.973,1.392 0.675,0.885 0.881,2.065 0.562,3.236"
             style="fill:#4f4c4d;fill-opacity:1;fill-rule:nonzero;stroke:none"
             id="path54" /></g><g id="g56" transform="translate(151.541,228.2651)"><path
             d="m 0,0 c -3.803,-6.275 -11.973,-8.281 -18.249,-4.479 -6.276,3.803 -8.282,11.973 -4.48,18.25 3.803,6.276 11.975,8.281 18.25,4.479 C 1.797,14.447 3.803,6.277 0,0"
             style="fill:#ed1c24;fill-opacity:1;fill-rule:nonzero;stroke:none"
             id="path58" /></g><g id="g60" transform="translate(164.9629,207.6069)"><path
             d="M 0,0 C -0.134,2.356 -1.671,4.202 -3.564,4.202 H -3.566 C -5.314,4.161 -6.983,2.435 -7.449,0.185 l -0.128,-0.62 C -7.862,-1.81 -8.703,-3.991 -9.413,-5.196 l -2.322,-3.948 c 0.794,-0.087 1.656,-0.154 2.378,-0.189 l 7.894,-0.383 0.287,0.706 c 0.046,0.113 1.129,2.779 1.277,3.562 0.157,0.824 -0.004,3.723 -0.011,3.845 z"
             style="fill:#393536;fill-opacity:1;fill-rule:nonzero;stroke:none"
             id="path62" /></g><g id="g64" transform="translate(100.0142,152.9907)"><path
             d="m 0,0 -11.946,10.131 c -0.724,0.613 -1.567,0.938 -2.438,0.938 -1.375,0 -2.617,-0.841 -3.241,-2.196 l -5.324,-11.564 0.056,-2.238 c 0.048,-1.932 1.06,-4.471 2.355,-5.908 L -9.34,-23.253 1.006,-6.179 C 2.201,-4.205 1.759,-1.49 0,0"
             style="fill:#a61217;fill-opacity:1;fill-rule:nonzero;stroke:none"
             id="path66" /></g><g id="g68" transform="translate(130.3486,61.5283)"><path
             d="m 0,0 z m 39.704,149.476 -0.09,1.602 c -0.134,2.357 -1.671,4.202 -3.564,4.202 h -10e-4 c -1.748,-0.039 -3.418,-1.765 -3.885,-4.016 l -0.127,-0.62 c -0.285,-1.376 -1.126,-3.557 -1.836,-4.763 l -8.364,-14.212 c -0.263,-0.444 -0.567,-0.454 -0.891,-0.085 l -8.708,9.895 c -1.129,1.282 -3.146,3.005 -4.593,3.921 L -9.23,156.077 c -0.687,0.434 -1.478,0.664 -2.287,0.664 -1.51,0 -2.879,-0.772 -3.661,-2.066 l -31.56,-52.217 c -0.95,-1.571 -1.658,-4.239 -1.612,-6.074 l 0.122,-4.852 c 0.049,-1.931 1.061,-4.469 2.355,-5.906 l 28.145,-31.208 c 0.743,-0.824 1.26,-2.572 1.087,-3.667 l -5.953,-37.487 c -0.233,-1.47 -0.763,-3.931 -1.158,-5.373 l -1.292,-4.718 c -0.32,-1.171 -0.118,-2.351 0.557,-3.236 0.675,-0.887 1.758,-1.397 2.973,-1.4 L 0,-1.5 c 2.427,0 4.329,1.511 4.331,3.44 0.002,1.694 -1.542,3.577 -3.589,4.378 l -10.723,4.205 c -0.711,0.28 -1.135,1.164 -0.906,1.893 L 1.092,50.563 c 0.54,1.721 0.687,4.456 0.332,6.225 l -0.165,0.826 c -0.347,1.736 -1.422,4.223 -2.448,5.664 l -21.412,30.091 c -0.531,0.747 -0.521,2.098 0.022,2.836 l 22.678,30.863 c 0.424,0.578 1.344,0.736 1.939,0.321 L 16.604,117.24 c 1.206,-0.841 3.025,-1.363 4.748,-1.363 0.555,0 1.073,0.057 1.541,0.168 l 1.971,0.468 c 2.001,0.475 4.095,2.27 4.87,4.175 l 8.704,21.38 c 0.046,0.114 1.129,2.779 1.277,3.562 0.157,0.823 -0.004,3.724 -0.011,3.846"
             style="fill:#ed1c24;fill-opacity:1;fill-rule:nonzero;stroke:none"
             id="path70" /></g></g></g></g></svg>
